<?xml version="1.0" encoding="UTF-8" standalone="no"?>
<svg
   xmlns:dc="http://purl.org/dc/elements/1.1/"
   xmlns:cc="http://creativecommons.org/ns#"
   xmlns:rdf="http://www.w3.org/1999/02/22-rdf-syntax-ns#"
   xmlns:svg="http://www.w3.org/2000/svg"
   xmlns="http://www.w3.org/2000/svg"
   xmlns:sodipodi="http://sodipodi.sourceforge.net/DTD/sodipodi-0.dtd"
   xmlns:inkscape="http://www.inkscape.org/namespaces/inkscape"
   viewBox="0 0 56.265998 56.265997"
   version="1.1"
   id="svg2379"
   sodipodi:docname="reset.svg"
   inkscape:version="0.92.3 (2405546, 2018-03-11)"
   width="56.265999"
   height="56.265999">
  <metadata
     id="metadata2385">
    <rdf:RDF>
      <cc:Work
         rdf:about="">
        <dc:format>image/svg+xml</dc:format>
        <dc:type
           rdf:resource="http://purl.org/dc/dcmitype/StillImage" />
        <dc:title></dc:title>
      </cc:Work>
    </rdf:RDF>
  </metadata>
  <defs
     id="defs2383" />
  <sodipodi:namedview
     pagecolor="#ffffff"
     bordercolor="#666666"
     borderopacity="1"
     objecttolerance="10"
     gridtolerance="10"
     guidetolerance="10"
     inkscape:pageopacity="0"
     inkscape:pageshadow="2"
     inkscape:window-width="1858"
     inkscape:window-height="1057"
     id="namedview2381"
     showgrid="false"
     inkscape:zoom="15.248996"
     inkscape:cx="28.132999"
     inkscape:cy="28.132999"
     inkscape:window-x="54"
     inkscape:window-y="-8"
     inkscape:window-maximized="1"
     inkscape:current-layer="g853" />
  <g
     id="g853"
     transform="translate(0,9.9945068e-4)">
    <circle
       id="circle840"
       r="28.132999"
       cy="28.132"
       cx="28.132999"
       style="fill:#66f1c1;fill-opacity:1" />
    <path
       id="path842"
       d="m 43.202,38.558 c 2.322,-3.141 3.551,-6.867 3.551,-10.783 0,-10.008 -8.143,-18.15 -18.15,-18.15 -10.01,0 -18.152,8.143 -18.152,18.15 0,9.803 7.818,17.797 17.547,18.119 v 3.84 L 40.336,39.857 27.997,29.98 v 6.945 c -4.781,-0.314 -8.578,-4.293 -8.578,-9.15 0,-5.063 4.119,-9.182 9.184,-9.182 5.063,0 9.182,4.119 9.182,9.18 0,1.98 -0.619,3.865 -1.793,5.451 z"
       inkscape:connector-curvature="0"
       style="fill:#ffffff" />
  </g>
</svg>
