<?xml version='1.0' encoding='iso-8859-1'?>
<!DOCTYPE svg PUBLIC '-//W3C//DTD SVG 1.1//EN' 'http://www.w3.org/Graphics/SVG/1.1/DTD/svg11.dtd'>
<svg version="1.1" xmlns="http://www.w3.org/2000/svg" viewBox="0 0 302.966 302.966" xmlns:xlink="http://www.w3.org/1999/xlink" enable-background="new 0 0 302.966 302.966">
  <g>
    <path d="m262.098,27.736c-4.02-22.007-49.422-27.61-110.615-27.736-61.193,0.126-106.594,5.729-110.615,27.736-5.522,30.225-17.94,121.584-17.94,121.584 0,51.596 83.066,123.066 115.656,149.121 7.559,6.043 18.26,6.028 25.819-0.016 32.603-26.067 115.635-97.52 115.635-149.105 0,0.001-12.417-91.359-17.94-121.584zm-15.614,131.978c0,3.313-2.687,6-6,6h-178c-3.313,0-6-2.687-6-6v-57.108c0-3.313 2.687-6 6-6h178c3.313,0 6,2.687 6,6v57.108z"/>
    <path d="m93.296,117.924c-0.978-1.07-2.148-1.938-3.514-2.605-1.365-0.667-2.854-1.001-4.467-1.001h-12.766c-0.813,0-1.472,0.659-1.472,1.472v30.095c0,0.813 0.659,1.472 1.472,1.472h6.13c0.813,0 1.472-0.659 1.472-1.472v-7.2c0-0.813 0.659-1.472 1.472-1.472h3.926c1.613,0 3.095-0.318 4.444-0.954 1.35-0.636 2.497-1.489 3.443-2.56 0.946-1.07 1.683-2.295 2.21-3.676 0.527-1.38 0.791-2.8 0.791-4.258 0-1.396-0.279-2.784-0.837-4.165-0.559-1.38-1.326-2.606-2.304-3.676zm-6.794,10.609c-0.481,0.512-1,0.768-1.559,0.768h-3.321c-0.813,0-1.472-0.659-1.472-1.472v-4.129c0-0.813 0.659-1.472 1.472-1.472h3.089c0.559,0 1.116,0.248 1.675,0.744 0.559,0.496 0.838,1.427 0.838,2.792 1.42109e-14,1.335-0.241,2.258-0.722,2.769z"/>
    <path d="m127.242,119.39c-1.459-1.582-3.211-2.854-5.259-3.815-2.047-0.962-4.327-1.442-6.84-1.442-2.451,0-4.708,0.458-6.771,1.372-2.063,0.916-3.847,2.141-5.352,3.677-1.505,1.535-2.676,3.312-3.513,5.327-0.838,2.018-1.257,4.111-1.257,6.282 0,2.141 0.403,4.219 1.21,6.235 0.807,2.017 1.938,3.809 3.397,5.374 1.457,1.567 3.21,2.832 5.258,3.793 2.047,0.962 4.327,1.442 6.84,1.442 2.45,0 4.707-0.466 6.771-1.396 2.063-0.931 3.839-2.163 5.328-3.699 1.489-1.535 2.652-3.304 3.49-5.305 0.837-2.001 1.256-4.087 1.256-6.258 0-2.109-0.396-4.172-1.187-6.189-0.789-2.016-1.914-3.816-3.371-5.398zm-5.096,14.611c-0.295,1.055-0.744,1.993-1.35,2.815-0.604,0.822-1.389,1.488-2.35,2-0.962,0.513-2.094,0.769-3.396,0.769-1.304,0-2.428-0.248-3.374-0.745-0.946-0.496-1.729-1.147-2.35-1.954-0.621-0.807-1.087-1.729-1.396-2.769-0.311-1.039-0.465-2.117-0.465-3.234 0-1.085 0.146-2.147 0.441-3.188 0.295-1.039 0.752-1.97 1.373-2.792 0.62-0.821 1.403-1.48 2.35-1.978 0.946-0.495 2.071-0.744 3.374-0.744 1.271,0 2.38,0.24 3.327,0.721 0.945,0.481 1.736,1.117 2.373,1.908 0.636,0.791 1.108,1.706 1.419,2.745 0.31,1.04 0.466,2.117 0.466,3.234-1.42109e-14,1.087-0.147,2.158-0.442,3.212z"/>
    <path d="m158.248,139.446h-12.04c-0.813,0-1.472-0.659-1.472-1.472v-22.185c0-0.813-0.659-1.472-1.472-1.472h-6.13c-0.813,0-1.472,0.659-1.472,1.472v30.095c0,0.813 0.659,1.472 1.472,1.472h21.113c0.813,0 1.472-0.659 1.472-1.472v-4.967c0.001-0.812-0.658-1.471-1.471-1.471z"/>
    <path d="m170.486,114.318h-6.13c-0.813,0-1.472,0.659-1.472,1.472v30.095c0,0.813 0.659,1.472 1.472,1.472h6.13c0.813,0 1.472-0.659 1.472-1.472v-30.095c-0.001-0.813-0.659-1.472-1.472-1.472z"/>
    <path d="m205.395,139.251l-4.879-2.915c-0.67-0.401-1.534-0.204-1.969,0.444-0.155,0.231-0.324,0.444-0.509,0.641-0.481,0.512-1.024,0.931-1.629,1.256-0.605,0.326-1.233,0.559-1.885,0.698-0.651,0.14-1.287,0.21-1.907,0.21-1.18,0-2.242-0.24-3.188-0.722-0.947-0.48-1.745-1.124-2.396-1.931-0.651-0.807-1.148-1.737-1.489-2.792-0.342-1.055-0.512-2.156-0.512-3.304 0-1.024 0.146-2.055 0.441-3.095 0.295-1.039 0.745-1.97 1.35-2.792 0.605-0.821 1.38-1.489 2.327-2.001 0.945-0.512 2.07-0.768 3.373-0.768 0.62,0 1.264,0.063 1.932,0.186 0.666,0.125 1.309,0.342 1.931,0.652 0.62,0.31 1.187,0.729 1.698,1.256 0.194,0.2 0.373,0.42 0.538,0.66 0.465,0.676 1.391,0.846 2.06,0.37l4.449-3.165c0.653-0.465 0.825-1.374 0.369-2.034-1.111-1.607-2.606-2.94-4.485-3.998-2.343-1.318-5.111-1.978-8.306-1.978-2.669,0-5.042,0.48-7.119,1.442-2.079,0.962-3.848,2.218-5.305,3.769-1.459,1.552-2.567,3.304-3.327,5.259-0.761,1.954-1.141,3.939-1.141,5.956 0,2.109 0.403,4.188 1.21,6.235 0.807,2.047 1.946,3.878 3.42,5.49 1.474,1.613 3.227,2.908 5.259,3.886 2.031,0.978 4.273,1.466 6.724,1.466 1.395,0 2.83-0.171 4.305-0.512 1.473-0.341 2.854-0.838 4.141-1.489 1.287-0.651 2.436-1.458 3.443-2.42 0.635-0.606 1.17-1.261 1.602-1.966 0.42-0.681 0.163-1.582-0.526-1.994z"/>
    <path d="m231.862,139.446h-11.528c-0.813,0-1.472-0.659-1.472-1.472v-2.269c0-0.813 0.659-1.472 1.472-1.472h9.063c0.813,0 1.472-0.659 1.472-1.472v-4.409c0-0.813-0.659-1.472-1.472-1.472h-9.063c-0.813,0-1.472-0.659-1.472-1.472v-1.709c0-0.813 0.659-1.472 1.472-1.472h11.109c0.813,0 1.472-0.659 1.472-1.472v-4.968c0-0.813-0.659-1.472-1.472-1.472h-20.183c-0.813,0-1.472,0.659-1.472,1.472v30.095c0,0.813 0.659,1.472 1.472,1.472h20.602c0.813,0 1.472-0.659 1.472-1.472v-4.967c-0.001-0.81-0.659-1.469-1.472-1.469z"/>
  </g>
</svg>
