<?xml version="1.0" encoding="utf-8"?>
<!-- Generator: Adobe Illustrator 16.0.0, SVG Export Plug-In . SVG Version: 6.00 Build 0)  -->
<!DOCTYPE svg PUBLIC "-//W3C//DTD SVG 1.1//EN" "http://www.w3.org/Graphics/SVG/1.1/DTD/svg11.dtd">
<svg version="1.1" id="Layer_1" xmlns="http://www.w3.org/2000/svg" xmlns:xlink="http://www.w3.org/1999/xlink" x="0px" y="0px"
	 width="23.43px" height="25.511px" viewBox="0 0 23.43 25.511" enable-background="new 0 0 23.43 25.511" xml:space="preserve">
<path fill="#00008B" d="M22.202,15.742c-1.09-2.224-2.777-3.578-6.916-3.578h-0.433h-0.418c-1.505,0-2.356,0.114-3.634,0.517
	C8.585,13.379,0.376,23.245,0.376,23.245c-0.501,0.501-0.501,1.313,0,1.815c0.253,0.25,0.578,0.375,0.908,0.375
	c0.328,0,0.657-0.125,0.907-0.375l7.812-7.204c0.014,0.185,0.157,7.655,0.157,7.655h9.394l0.202-6.524l0.635,6.524h3.039
	C23.042,21.443,22.521,16.394,22.202,15.742 M12.843,25.452h-2.135L17.8,12.766c0.704,0.142,1.289,0.357,1.787,0.625L12.843,25.452z
	 M19.295,6.687c0,2.453-1.987,4.438-4.438,4.438h-0.004h-0.006c-2.444,0-4.436-1.985-4.436-4.438c0-0.475,0.098-0.927,0.233-1.354
	h4.209h4.209C19.202,5.76,19.295,6.212,19.295,6.687 M19.431,1.179l-0.369,3.469h-4.209h-4.209l-0.368-3.469L14.853,0L19.431,1.179z
	"/>
</svg>
