<?xml version="1.0" encoding="utf-8"?>
<!-- Generator: Adobe Illustrator 16.0.0, SVG Export Plug-In . SVG Version: 6.00 Build 0)  -->
<!DOCTYPE svg PUBLIC "-//W3C//DTD SVG 1.1//EN" "http://www.w3.org/Graphics/SVG/1.1/DTD/svg11.dtd">
<svg version="1.1" id="Layer_1" xmlns="http://www.w3.org/2000/svg" xmlns:xlink="http://www.w3.org/1999/xlink" x="0px" y="0px"
	 width="187.231px" height="150.869px" viewBox="0 0 187.231 150.869" enable-background="new 0 0 187.231 150.869"
	 xml:space="preserve">
<g>
	<text transform="matrix(1 0 0 1 165.4067 131.8403)" fill="#050505" font-family="'TimesNewRomanPSMT'" font-size="9.96"> </text>
	<path fill="#FFFFFF" d="M101.193,19.667L82.822,20.16V3.111l18.371-0.603 M101.193,33.256l-18.371,0.541V22.632l18.371-0.475
		V33.256z M101.193,37.704l-18.371,0.514v-2.263l18.371-0.561V37.704z M101.193,41.795l-18.371,0.51v-1.762l18.371-0.513V41.795z
		 M101.193,46.438l-18.371,0.508v-2.057l18.371-0.512V46.438z M101.193,51.076l-18.371,0.501V49.52l18.371-0.5V51.076z
		 M101.193,55.185l-18.371,0.498v-1.632l18.371-0.474V55.185z M104.415,22.08v-2.487l-0.965,0.012V0.001L79.213,1.124v1.424
		l1.421,0.479v21.089l-0.029,0.067l0.08-0.067v9.762l-1.061,0.029v2.136l1.061-0.034v2.275l-1.061,0.024v2.323l1.061-0.025v1.767
		L79.624,42.4v2.572l1.061-0.031v2.063l-1.061,0.034v2.581l1.061-0.033v2.039l-1.061,0.025v2.489l1.061-0.032v1.638l-1.061,0.032
		v2.224l1.061-0.033v0.687c4.236-0.671,8.747-1.138,13.476-1.329c3.418-0.131,6.699-0.012,9.825,0.27
		c-0.176-0.012-0.344-0.03-0.536-0.048v-0.189l0.965-0.025v-2.231l-0.965,0.03v-1.619l0.965-0.028v-2.482l-0.965,0.008V48.95
		l0.965-0.011v-2.58l-0.965,0.013v-2.046l0.965-0.033v-2.574l-0.965,0.029V39.96l0.965-0.038v-2.301l-0.965,0.026V35.33l0.965-0.032
		v-2.146l-0.965,0.028V22.106L104.415,22.08z M85.801,14.933l1.554-0.886l0.292,0.496l-1.57,0.913L85.801,14.933z M84.988,11.182
		h1.699v0.583h-1.699V11.182z M86.112,7.53l1.599,0.905l-0.29,0.518l-1.597-0.924L86.112,7.53z M89.29,16.238l0.512,0.294
		l-0.913,1.571l-0.499-0.304L89.29,16.238z M88.889,4.853l0.89,1.547l-0.498,0.29L88.39,5.141L88.889,4.853z M91.206,11.515v0.002
		l0.636-0.333c0.089-0.241,0.322-0.417,0.604-0.417l0.165,0.021l0.125-0.066l0.134-0.057l0.254,0.524l-0.067,0.036l0.008,0.175
		l-0.028,0.21l0.604,0.596l1.16,1.166l1.089,1.09l-0.427,0.419l-1.092-1.095l-0.149-0.155l-1.013-1.005l-0.085-0.092l-0.517-0.535
		l-0.161,0.023c-0.209,0-0.354-0.094-0.479-0.23l-0.515,0.265v-0.003l-1.547,0.801v-0.003l-0.355,0.173l-0.269-0.511l1.578-0.814
		L91.206,11.515z M92.096,3.996h0.582v1.922h-0.582V3.996z M95.856,4.853l0.521,0.288L95.45,6.753l-0.517-0.302L95.856,4.853z
		 M97.337,13.989l1.555,0.906l-0.284,0.506l-1.545-0.894L97.337,13.989z M98.539,7.581l0.298,0.516l-1.499,0.856l-0.274-0.518
		L98.539,7.581z M99.677,11.764h-1.74v-0.583h1.74V11.764z M95.838,18.026l-0.905-1.53l0.522-0.293l0.886,1.528L95.838,18.026z
		 M92.678,18.947h-0.582v-1.92h0.582V18.947z M92.238,19.345c4.305,0,7.784-3.507,7.784-7.863c0-4.338-3.479-7.856-7.784-7.856
		c-4.283,0-7.765,3.518-7.765,7.856C84.473,15.838,87.955,19.345,92.238,19.345"/>
	<polyline fill="#008845" points="4.325,131.795 2.53,128.214 1.878,129.058 1.878,131.795 0,131.795 0,123.071 1.878,123.071 
		1.878,126.153 4.129,123.071 6.455,123.071 3.808,126.603 6.548,131.795 	"/>
	<path fill="#008845" d="M10.161,126.381l-0.706,2.316h1.352 M11.659,131.795l-0.36-1.313H8.915l-0.365,1.313H6.548l2.817-8.725
		h1.471l2.833,8.725H11.659z"/>
	<path fill="#008845" d="M27.074,125.872c0-0.23-0.08-0.436-0.219-0.617c-0.152-0.188-0.352-0.268-0.609-0.268h-1.085v1.784h1.085
		c0.257,0,0.457-0.098,0.609-0.284C26.994,126.314,27.074,126.1,27.074,125.872 M28.976,125.872c0,0.353-0.057,0.709-0.171,1.049
		c-0.121,0.322-0.285,0.634-0.518,0.898c-0.215,0.258-0.484,0.459-0.822,0.62c-0.33,0.161-0.703,0.236-1.143,0.236h-1.161v3.119
		h-1.909v-8.726h3.07c0.44,0,0.813,0.086,1.143,0.245c0.338,0.161,0.607,0.372,0.822,0.636c0.233,0.258,0.397,0.553,0.518,0.881
		C28.919,125.169,28.976,125.515,28.976,125.872"/>
	<path fill="#008845" d="M32.377,126.381l-0.703,2.316h1.352 M33.884,131.795l-0.371-1.313h-2.382l-0.366,1.313h-2.001l2.821-8.725
		h1.468l2.83,8.725H33.884z"/>
	<polyline fill="#008845" points="36.655,131.795 36.655,123.071 38.573,123.071 38.573,129.877 41.834,129.877 41.834,131.795 	"/>
	<path fill="#008845" d="M45.761,126.381l-0.694,2.316h1.351 M47.283,131.795l-0.354-1.313h-2.39l-0.386,1.313h-1.998l2.824-8.725
		h1.478l2.823,8.725H47.283z"/>
	<path fill="#008845" d="M58.84,130.277c-0.173,0.356-0.4,0.649-0.664,0.892c-0.252,0.236-0.544,0.41-0.866,0.523
		c-0.326,0.107-0.681,0.165-1.06,0.165c-0.465,0-0.866-0.089-1.217-0.245c-0.347-0.174-0.677-0.423-0.958-0.742
		c-0.202-0.219-0.368-0.463-0.47-0.726c-0.103-0.271-0.182-0.541-0.227-0.845c-0.063-0.299-0.085-0.602-0.085-0.912v-1.917
		c0-0.318,0.022-0.631,0.085-0.909c0.045-0.302,0.124-0.572,0.227-0.831c0.102-0.272,0.268-0.521,0.47-0.76
		c0.281-0.325,0.611-0.541,0.958-0.726c0.351-0.157,0.752-0.246,1.217-0.246c0.379,0,0.734,0.059,1.06,0.174
		c0.322,0.117,0.614,0.285,0.866,0.527c0.264,0.239,0.491,0.529,0.664,0.893c0.178,0.347,0.307,0.765,0.374,1.247h-1.94
		c-0.065-0.238-0.168-0.46-0.317-0.65c-0.151-0.188-0.38-0.28-0.687-0.28c-0.183,0-0.326,0.03-0.455,0.092
		c-0.133,0.086-0.24,0.17-0.312,0.279l-0.119,0.225c-0.04,0.076-0.067,0.195-0.099,0.335c-0.016,0.168-0.039,0.37-0.048,0.626
		c-0.018,0.236-0.018,0.568-0.018,0.962c0,0.403,0,0.719,0.018,0.981c0.009,0.24,0.032,0.449,0.048,0.592
		c0.032,0.17,0.059,0.281,0.099,0.369l0.119,0.209c0.072,0.109,0.179,0.201,0.312,0.264c0.129,0.084,0.272,0.105,0.455,0.105
		c0.307,0,0.536-0.089,0.687-0.285c0.149-0.187,0.252-0.403,0.317-0.64h1.94C59.147,129.505,59.018,129.926,58.84,130.277"/>
	<path fill="#008845" d="M62.969,126.381l-0.702,2.316h1.363 M64.494,131.795l-0.365-1.313h-2.392l-0.393,1.313h-2.013l2.854-8.725
		h1.482l2.843,8.725H64.494z"/>
	<path fill="#008845" d="M71.15,125.872c0-0.23-0.081-0.436-0.224-0.617c-0.141-0.188-0.355-0.268-0.612-0.268h-1.09v1.784h1.09
		c0.257,0,0.471-0.098,0.612-0.284C71.069,126.314,71.15,126.1,71.15,125.872 M73.07,125.872c0,0.353-0.047,0.709-0.178,1.049
		c-0.109,0.322-0.288,0.634-0.511,0.898c-0.227,0.258-0.498,0.459-0.832,0.62c-0.337,0.161-0.715,0.236-1.152,0.236h-1.173v3.119
		h-1.922v-8.726h3.095c0.437,0,0.815,0.086,1.152,0.245c0.334,0.161,0.605,0.372,0.832,0.636c0.223,0.258,0.402,0.553,0.511,0.881
		C73.023,125.169,73.07,125.515,73.07,125.872"/>
	<rect x="74.18" y="123.071" fill="#008845" width="1.939" height="8.725"/>
	<polyline fill="#008845" points="81.082,124.989 81.082,131.795 79.146,131.795 79.146,124.989 77.234,124.989 77.234,123.071 
		83.002,123.071 83.002,124.989 	"/>
	<path fill="#008845" d="M86.313,126.381l-0.707,2.316h1.366 M87.84,131.795l-0.36-1.313h-2.405l-0.389,1.313h-2.007l2.838-8.725
		h1.49l2.848,8.725H87.84z"/>
	<polyline fill="#008845" points="90.633,131.795 90.633,123.071 92.564,123.071 92.564,129.877 95.851,129.877 95.851,131.795 	"/>
	<path fill="#008845" d="M106.043,130.277c-0.185,0.356-0.401,0.649-0.662,0.892c-0.263,0.236-0.578,0.41-0.9,0.523
		c-0.329,0.107-0.692,0.165-1.058,0.165c-0.482,0-0.878-0.089-1.263-0.245c-0.33-0.174-0.655-0.423-0.949-0.742
		c-0.207-0.219-0.368-0.463-0.48-0.726c-0.121-0.271-0.182-0.541-0.245-0.845c-0.069-0.299-0.074-0.602-0.074-0.912v-1.917
		c0-0.318,0.005-0.631,0.074-0.909c0.063-0.302,0.124-0.572,0.245-0.831c0.112-0.272,0.273-0.521,0.48-0.76
		c0.294-0.325,0.619-0.541,0.949-0.726c0.385-0.157,0.78-0.246,1.263-0.246c0.365,0,0.729,0.059,1.058,0.174
		c0.322,0.117,0.638,0.285,0.9,0.527c0.261,0.239,0.478,0.529,0.662,0.893c0.179,0.347,0.312,0.765,0.378,1.247h-1.998
		c-0.039-0.238-0.133-0.46-0.303-0.65c-0.154-0.188-0.372-0.28-0.697-0.28c-0.174,0-0.339,0.03-0.467,0.092
		c-0.135,0.086-0.221,0.17-0.296,0.279l-0.115,0.225c-0.065,0.076-0.074,0.195-0.127,0.335c0,0.168-0.031,0.37-0.041,0.626
		c-0.022,0.236-0.022,0.568-0.022,0.962c0,0.403,0,0.719,0.022,0.981c0.01,0.24,0.041,0.449,0.041,0.592
		c0.053,0.17,0.062,0.281,0.127,0.369l0.115,0.209c0.075,0.109,0.161,0.201,0.296,0.264c0.128,0.084,0.293,0.105,0.467,0.105
		c0.325,0,0.543-0.089,0.697-0.285c0.17-0.187,0.264-0.403,0.303-0.64h1.998C106.355,129.505,106.222,129.926,106.043,130.277"/>
	<rect x="107.447" y="123.071" fill="#008845" width="1.951" height="8.725"/>
	<polyline fill="#008845" points="114.442,124.989 114.442,131.795 112.484,131.795 112.484,124.989 110.544,124.989 
		110.544,123.071 116.404,123.071 116.404,124.989 	"/>
	<polyline fill="#008845" points="121.079,128.226 121.079,131.795 119.123,131.795 119.123,128.226 116.738,123.071 
		118.866,123.071 120.1,126.209 121.35,123.071 123.485,123.071 	"/>
	<path fill="#008845" d="M131.017,126.381l-0.704,2.316h1.389 M132.578,131.795l-0.36-1.313h-2.454l-0.383,1.313h-2.047l2.886-8.725
		h1.493l2.889,8.725H132.578z"/>
	<path fill="#008845" d="M141.056,130.021c-0.173,0.39-0.39,0.709-0.653,0.995c-0.285,0.259-0.605,0.477-0.957,0.618
		c-0.379,0.161-0.769,0.223-1.172,0.223c-0.43,0-0.815-0.062-1.156-0.223c-0.375-0.142-0.695-0.359-0.963-0.618
		c-0.271-0.286-0.489-0.605-0.649-0.995c-0.143-0.384-0.226-0.807-0.226-1.293v-5.657h1.949v5.602c0,0.418,0.088,0.734,0.28,0.951
		c0.193,0.219,0.446,0.324,0.765,0.324c0.327,0,0.581-0.105,0.787-0.324c0.186-0.217,0.278-0.533,0.278-0.951v-5.602h1.94v5.657
		C141.28,129.214,141.198,129.637,141.056,130.021"/>
	<polyline fill="#008845" points="146.208,124.989 146.208,131.795 144.243,131.795 144.243,124.989 142.285,124.989 
		142.285,123.071 148.147,123.071 148.147,124.989 	"/>
	<polyline fill="#008845" points="153.294,131.795 153.294,128.338 151.215,128.338 151.215,131.795 149.268,131.795 
		149.268,123.071 151.215,123.071 151.215,126.425 153.294,126.425 153.294,123.071 155.248,123.071 155.248,131.795 	"/>
	<path fill="#008845" d="M160.663,127.427c0-0.394,0-0.726-0.004-0.962c-0.019-0.256-0.056-0.451-0.061-0.606
		c-0.026-0.151-0.06-0.274-0.096-0.354l-0.118-0.205c-0.083-0.111-0.181-0.213-0.305-0.28c-0.14-0.08-0.305-0.11-0.473-0.11
		c-0.178,0-0.348,0.03-0.476,0.11c-0.129,0.067-0.217,0.169-0.307,0.28l-0.12,0.205c-0.038,0.08-0.059,0.203-0.1,0.354
		c-0.003,0.155-0.044,0.351-0.044,0.606c-0.023,0.236-0.023,0.568-0.023,0.962c0,0.403,0,0.719,0.023,0.974
		c0,0.248,0.041,0.439,0.044,0.586c0.041,0.164,0.062,0.268,0.1,0.356l0.12,0.217c0.09,0.103,0.178,0.206,0.307,0.276
		c0.128,0.068,0.298,0.111,0.476,0.111c0.168,0,0.333-0.043,0.473-0.111c0.124-0.07,0.222-0.174,0.305-0.276l0.118-0.217
		c0.036-0.089,0.069-0.192,0.096-0.356c0.005-0.146,0.042-0.338,0.061-0.586C160.663,128.146,160.663,127.831,160.663,127.427
		 M162.61,127.427v0.96c0,0.311-0.009,0.613-0.073,0.911c-0.06,0.305-0.136,0.575-0.236,0.845c-0.113,0.264-0.282,0.507-0.473,0.727
		c-0.309,0.319-0.61,0.567-0.971,0.742c-0.347,0.156-0.766,0.245-1.25,0.245c-0.494,0-0.916-0.089-1.258-0.245
		c-0.356-0.175-0.66-0.423-0.962-0.742c-0.21-0.22-0.362-0.463-0.474-0.727c-0.121-0.27-0.189-0.54-0.25-0.845
		c-0.055-0.298-0.06-0.601-0.068-0.911v-1.918c0.009-0.318,0.014-0.631,0.068-0.908c0.061-0.302,0.129-0.572,0.25-0.831
		c0.111-0.272,0.264-0.521,0.474-0.76c0.302-0.325,0.605-0.542,0.962-0.726c0.342-0.158,0.764-0.246,1.258-0.246
		c0.484,0,0.903,0.088,1.25,0.246c0.36,0.184,0.662,0.4,0.971,0.726c0.19,0.239,0.359,0.487,0.473,0.76
		c0.101,0.259,0.177,0.529,0.236,0.831c0.064,0.277,0.073,0.59,0.073,0.908V127.427z"/>
	<path fill="#008845" d="M167.88,125.87c0-0.233-0.099-0.435-0.238-0.623c-0.143-0.179-0.345-0.258-0.627-0.258h-1.097v1.752h1.097
		c0.282,0,0.484-0.084,0.627-0.268C167.782,126.292,167.88,126.096,167.88,125.87 M167.957,131.795l-1.389-3.258h-0.649v3.258h-1.96
		v-8.725h3.152c0.443,0,0.827,0.084,1.161,0.244c0.332,0.16,0.615,0.372,0.84,0.637c0.244,0.258,0.398,0.551,0.519,0.879
		c0.128,0.34,0.192,0.686,0.192,1.043c0,0.287-0.056,0.564-0.128,0.805c-0.069,0.255-0.182,0.449-0.297,0.648
		c-0.133,0.188-0.258,0.363-0.415,0.494c-0.16,0.139-0.313,0.256-0.462,0.325l1.705,3.649H167.957z"/>
	<rect x="171.226" y="123.071" fill="#008845" width="1.952" height="8.725"/>
	<polyline fill="#008845" points="178.208,124.989 178.208,131.795 176.268,131.795 176.268,124.989 174.309,124.989 
		174.309,123.071 180.149,123.071 180.149,124.989 	"/>
	<polyline fill="#008845" points="184.838,128.226 184.838,131.795 182.88,131.795 182.88,128.226 180.494,123.071 182.61,123.071 
		183.859,126.209 185.101,123.071 187.231,123.071 	"/>
	<polyline fill="#008845" points="19.802,123.071 18.061,126.921 16.323,123.071 14.444,123.071 14.444,131.795 16.354,131.795 
		16.354,127.606 17.991,131.375 18.189,131.375 19.773,127.606 19.773,131.795 21.689,131.795 21.689,123.071 	"/>
	<path fill="#080204" d="M133.758,140.476c0,0,0.972,0.192,0.902,1.718c0,0-0.05,0.59-0.443,1.348
		c-0.385,0.762-1.097,1.686-0.979,2.16c0.118,0.486,0.811,0.113,0.979,0c0.171-0.107,2.284-1.692,3.421-4.754
		c0,0,1.169,0.228,0.523,2.117c-0.646,1.909-2.453,5.926-4.423,7.111c-1.979,1.193-4.297,0.775-3.332-0.74
		c0,0,0.174,0.764,1.357,0.707c1.202-0.064,2.75-0.572,4.448-5.609c0,0-1.076,1.315-2.127,2.045
		c-1.09,0.733-2.192,0.762-2.421,0.051c-0.221-0.711,0.126-1.481,0.371-2.125C132.282,143.858,133.239,142.759,133.758,140.476"/>
	<path fill="#080204" d="M131.694,141.092c0.466-0.717,0.981-1.324,1.428-1.684c0,0-0.582-0.487-1.485-0.131
		c-0.516,0.172-1.09,0.995-1.581,1.814h-0.991c-0.235,0-0.524,0.249-0.591,0.681h1.188c-0.219,0.413-0.408,0.778-0.538,1.026
		c-0.458,0.859-1.719,4.214,0.234,4.624c0,0-0.13-1.052,0.539-2.903c0.323-0.861,0.796-1.857,1.342-2.747h1.362
		c0.306,0,0.542-0.521,0.542-0.681"/>
	<path fill="#080204" d="M101.512,141.092c0.486-0.717,0.999-1.324,1.421-1.684c0,0-0.559-0.487-1.477-0.131
		c-0.506,0.172-1.081,0.995-1.562,1.814h-0.989c-0.243,0-0.523,0.249-0.617,0.681H99.5c-0.24,0.413-0.423,0.778-0.564,1.026
		c-0.429,0.859-1.701,4.214,0.262,4.624c0,0-0.135-1.052,0.529-2.903c0.308-0.861,0.814-1.857,1.339-2.747h1.366
		c0.306,0,0.556-0.521,0.556-0.681"/>
	<path fill="#080204" d="M97.579,141.092c0.487-0.717,0.979-1.324,1.419-1.684c0,0-0.587-0.487-1.482-0.131
		c-0.521,0.172-1.095,0.995-1.58,1.814h-0.96c-0.262,0-0.53,0.249-0.618,0.681h1.187c-0.224,0.413-0.418,0.778-0.547,1.026
		c-0.431,0.859-1.708,4.214,0.24,4.624c0,0-0.114-1.052,0.539-2.903c0.32-0.861,0.813-1.857,1.352-2.747h1.37
		c0.307,0,0.554-0.521,0.554-0.681"/>
	<path fill="#080204" d="M129.251,138.643c-0.089-0.594-0.738-0.688-1.02-0.556c-0.258,0.12-0.462,0.487-0.462,0.487
		s-0.201,0.799,0.382,1.026C128.735,139.833,129.323,139.223,129.251,138.643 M126.734,140.991c0.062,0.244-1.625,3.067-2.002,4
		c-0.384,0.942-0.254,1.719-0.055,2.188c0.215,0.454,0.721,0.536,0.721,0.536c0.089-2.765,2.351-4.487,2.351-5.599
		C127.749,140.999,126.734,140.991,126.734,140.991"/>
	<path fill="#080204" d="M123.837,143.709c0,0,0.448,0.615-0.133,1.768c-0.578,1.152-2.438,2.122-3.946,1.922
		c-1.531-0.222-2.495-1.313-2.102-3.83c0.4-2.49,2.705-4.813,4.33-5.685c1.641-0.851,3.522-1.152,4.238-0.677
		c0.738,0.475,0.434,1.33,0.035,1.459c0,0-0.311-1.068-1.975-0.813c-1.645,0.262-3.784,3.016-4.527,5.635
		c-0.762,2.625-0.214,3.324,1.302,3.074C122.606,146.318,123.837,143.709,123.837,143.709"/>
	<path fill="#080204" d="M109.13,140.762c0,0,0.897,0.169,0.897,0.961c0,0.779-0.63,1.877-0.63,1.877s1.458-1.484,1.819-1.866
		c0.368-0.37,1.5-1.219,1.971-0.526c0.453,0.687-0.232,1.758-0.49,1.871c0,0-0.32-0.621-1.112-0.422
		c-0.781,0.178-2.027,1.398-2.696,2.318c-0.662,0.938-1.213,2.366-1.238,2.428c0,0-0.466-0.044-0.656-0.693
		c-0.19-0.644,0.119-1.401,0.19-1.573c0.08-0.161,1.486-2.929,1.61-3.257C108.93,141.534,109.148,140.898,109.13,140.762"/>
	<path fill="#080204" d="M62.102,140.762c0,0,0.884,0.169,0.884,0.961c0,0.779-0.615,1.877-0.615,1.877s1.451-1.484,1.801-1.866
		c0.385-0.37,1.514-1.219,1.978-0.526c0.457,0.687-0.229,1.758-0.486,1.871c0,0-0.315-0.621-1.107-0.422
		c-0.792,0.178-2.039,1.398-2.697,2.318c-0.662,0.938-1.219,2.366-1.241,2.428c0,0-0.471-0.044-0.65-0.693
		c-0.204-0.644,0.112-1.401,0.179-1.573c0.085-0.161,1.481-2.929,1.61-3.257C61.896,141.534,62.123,140.898,62.102,140.762"/>
	<path fill="#080204" d="M105.583,143.321c-0.668,0.303-1.412,0.389-1.813,0.426c1.16-1.853,2.647-2.43,2.967-2.105
		C107.088,141.987,106.599,142.883,105.583,143.321 M105.189,141.252c-1.935,0.83-3.011,2.166-3.509,3.051
		c-0.486,0.846-1.069,3.166,1.125,3.038c2.194-0.14,2.946-1.196,3.157-1.646c0.251-0.431,0.027-0.733,0.027-0.733
		c-0.151,0.252-1.001,1.28-2.043,1.601c-0.96,0.299-1.528-0.32-0.561-2.189c0.852-0.037,2.999-0.516,3.746-1.666
		C108.056,141.336,107.115,140.433,105.189,141.252"/>
	<path fill="#080204" d="M92.03,143.321c-0.666,0.303-1.413,0.389-1.814,0.426c1.169-1.853,2.656-2.43,2.98-2.105
		C93.542,141.987,93.059,142.883,92.03,143.321 M91.646,141.252c-1.934,0.83-3.018,2.166-3.494,3.051
		c-0.504,0.846-1.075,3.166,1.107,3.038c2.194-0.14,2.935-1.196,3.163-1.646c0.227-0.431,0.018-0.733,0.018-0.733
		c-0.154,0.252-1.006,1.28-2.027,1.601c-0.98,0.299-1.541-0.32-0.572-2.189c0.836-0.037,3.003-0.516,3.755-1.666
		C94.504,141.336,93.58,140.433,91.646,141.252"/>
	<path fill="#080204" d="M85.045,144.95c-1.091,1.031-2.158,1.687-3.109,1.582c0.228-0.578,0.922-2.1,2.158-3.283
		c1.567-1.476,2.09-0.953,2.12-0.676C86.247,142.857,86.211,143.827,85.045,144.95 M86.689,140.887
		c-0.864,0.138-2.395,1.227-3.244,2.179c0,0,1.609-3.131,4.127-5.794c0,0-0.479-0.639-1.622-0.041
		c-1.139,0.623-2.644,3.46-2.849,3.855c-0.159,0.295-1.777,3.732-2.266,5.212c-0.077,0.243-0.193,0.589-0.222,0.686l-0.012,0.029
		l0.067,0.009c0.194,0.074,0.838,0.274,1.923,0.18c1.327-0.127,3.522-1.024,4.796-3.155c0,0,0.521-0.804,0.573-1.839
		C87.982,141.208,87.541,140.762,86.689,140.887"/>
	<path fill="#080204" d="M74.09,144.009c-0.948,1.196-1.639,1.632-2.231,1.735c-0.6,0.104-0.427-1.904,1.26-3.311
		c1.686-1.409,2.878-0.867,2.878-0.867C75.904,141.534,75.018,142.809,74.09,144.009 M77.247,141.336c0,0-1.512-1.09-4.07-0.04
		c-2.572,1.041-4.235,4.657-2.993,5.786c0.933,0.857,3.009-1,3.964-2.264c-0.037,0.104-0.046,0.233-0.058,0.387
		c-0.068,0.615-0.144,2.074,1.013,2.394C75.103,147.599,74.992,145.252,77.247,141.336"/>
	<path fill="#080204" d="M59.41,142.981c-0.382,1.245-1.518,2.869-2.795,3.209c-1.253,0.342-1.272-1.01-0.433-2.35
		c0.847-1.34,2.076-2.223,2.67-2.246c0.149,0,0.308,0.005,0.438,0.072l0.177,0.213C59.609,142.194,59.467,142.708,59.41,142.981
		 M59.641,141.079c0,0-1.099-0.642-2.994,0.428c-1.899,1.07-3.603,4.06-2.291,5.516c0,0,0.849,0.77,2.512-0.086
		c1.674-0.822,2.656-2.404,3.034-3.661C60.288,142.032,60.014,141.35,59.641,141.079"/>
	<path fill="#080204" d="M52.202,138.026c1.176-0.152,2.656-0.172,4.466,0.111c0,0,0.102-0.604-1.166-1.02
		c-1.275-0.414-4.939-0.231-5.883,0.621c0,0-0.689,0.524-0.614,1.312c0,0,0.498-0.321,1.454-0.638
		c-0.037,0.16-0.102,0.365-0.213,0.638c-0.515,1.28-2.069,4.304-2.417,5.222c-0.355,0.915-1.241,3.025,0.601,3.669
		c0,0,0.357-2.028,1.69-5.032c1.772-0.666,4.189-0.309,4.189-0.309s-0.082-0.855-1.412-0.934c-0.951-0.062-1.9,0.212-2.39,0.382
		c0.082-0.154,0.144-0.28,0.218-0.431C51.704,139.632,52.091,138.565,52.202,138.026"/>
	<path fill="#E91D25" d="M102.948,96.222c0-9.147,3.789-14.085,10.822-14.085c3.545,0,6.463,0.927,9.893,3.131l-0.461-8.537
		c-2.915-0.522-6.06-0.818-8.969-0.818c-6.454,0-12.453,1.794-16.46,4.996c-4.536,3.67-7.316,9.711-7.316,15.961
		c0,7.144,3.474,13.543,9.532,17.443c4.012,2.67,7.853,3.651,13.959,3.651c4.946,0,8.141-0.394,11.929-1.498l3.088-8.503
		c-5.648,2.85-8.852,3.799-12.747,3.799C108.086,111.762,102.948,105.762,102.948,96.222 M144.092,99.182l4.064-12.157l4.314,12.157
		H144.092z M154.505,117.163h17.744c-2.804-2.807-3.448-3.848-5.005-8.157l-11.867-32.274h-14.259
		c1.74,1.441,2.325,2.332,2.325,3.661c0,0.806-0.062,1.11-1.159,4.251l-8.266,24.027c-1.574,4.771-2.095,5.686-4.701,8.492h12.615
		c-1.907-1.866-2.263-2.397-2.263-3.611c0-0.872,0.229-1.917,0.928-3.781l1.687-4.895h12.221l1.631,4.895
		c0.682,1.992,0.862,2.848,0.862,3.671C156.999,114.765,156.415,115.651,154.505,117.163 M64.081,96.222
		c0-9.147,3.781-14.085,10.81-14.085c3.554,0,6.469,0.927,9.907,3.131l-0.483-8.537c-2.908-0.522-6.044-0.818-8.953-0.818
		c-6.45,0-12.453,1.794-16.46,4.996c-4.546,3.67-7.336,9.711-7.336,15.961c0,7.144,3.494,13.543,9.552,17.443
		c4.005,2.67,7.848,3.651,13.95,3.651c4.952,0,8.147-0.394,11.931-1.498l3.097-8.503c-5.657,2.85-8.86,3.799-12.758,3.799
		C69.195,111.762,64.081,105.762,64.081,96.222 M48.895,109.708L38.421,93.132l13.551-16.401H36.901
		c1.868,1.271,2.512,2.2,2.512,3.492c0,1.337-0.13,1.518-3.554,5.873l-6.985,8.847v-10.19c0-3.307,0.073-4.303,0.474-5.234
		c0.457-1.221,1.044-1.969,2.147-2.787H15.036c0.992,0.751,1.452,1.219,1.926,2.268c0.574,1.158,0.689,2.039,0.689,5.754v24.377
		c0,5.227-0.345,6.344-2.615,8.033h16.459c-2.268-1.739-2.621-2.85-2.621-8.033v-9.947l6.812,11.631
		c3.439,5.887,4.663,6.532,12.688,6.532c2.437,0,5.114-0.067,6.103-0.183C52.853,115.763,51.919,114.538,48.895,109.708"/>
	<path fill="#008845" d="M44.753,70.464c0,0,55.213-19.368,97.962,2.003c0,0-19.594-16.245-48.554-15.142
		C65.233,58.436,44.753,70.464,44.753,70.464"/>
	<polyline fill="#080204" points="82.823,51.575 101.193,51.076 101.193,49.02 82.823,49.52 	"/>
	<polyline fill="#080204" points="101.194,35.394 82.823,35.954 82.823,38.218 101.194,37.702 	"/>
	<polyline fill="#080204" points="101.194,40.029 82.823,40.543 82.823,42.305 101.194,41.796 	"/>
	<polyline fill="#080204" points="101.194,44.376 82.823,44.888 82.823,46.946 101.194,46.438 	"/>
	<polyline fill="#080204" points="101.194,22.157 82.823,22.632 82.823,33.797 101.194,33.256 	"/>
	<polyline fill="#080204" points="101.194,53.576 82.823,54.05 82.823,55.683 101.194,55.183 	"/>
	<path fill="#FAD800" d="M80.686,57.967L79.624,58v-2.222l1.062-0.034v-1.638l-1.062,0.032v-2.489l1.062-0.025v-2.039l-1.062,0.033
		v-2.581l1.062-0.034V44.94l-1.062,0.031v-2.572l1.062-0.027v-1.767l-1.062,0.025v-2.323l1.062-0.024v-2.275l-1.062,0.034v-2.136
		l1.062-0.029v-9.762c-6.766,4.573-11.223,12.312-11.223,21.083c0,5.466,1.731,10.527,4.686,14.673
		c2.099-0.453,4.273-0.861,6.537-1.208"/>
	<path fill="#FAD800" d="M107.425,23.171v1.658l1.395-0.048v2.048l-1.395,0.055v11.153l1.395-0.031v1.596l-1.395,0.048v2.851
		l1.395-0.043v1.965l-1.395,0.047v2.482l1.395-0.03v2.049l-1.395,0.033v2.246l1.395-0.044v2.315l-1.395,0.056v2.295l1.395-0.031
		v1.613l-1.353,0.03l0.038,0.537c2.865,0.407,5.614,0.961,8.195,1.625c2.842-4.097,4.52-9.086,4.52-14.449
		C120.22,35.76,115.066,27.533,107.425,23.171"/>
	<path fill="#080204" d="M103.451,57.359v0.189c1.375,0.13,2.714,0.29,4.056,0.471l-0.039-0.535l1.353-0.029v-1.613l-1.395,0.031
		v-2.296l1.395-0.056v-2.314l-1.395,0.043v-2.246l1.395-0.033v-2.048l-1.395,0.03v-2.482l1.395-0.048v-1.964l-1.395,0.042v-2.85
		l1.395-0.049v-1.595l-1.395,0.03V26.884l1.395-0.055v-2.047l-1.395,0.048V7.109l1.395-0.025V5.736h-0.26L103.451,0v19.605
		l0.965-0.014v2.489l-0.965,0.025V33.18l0.965-0.03v2.147l-0.965,0.033v2.317l0.965-0.026v2.3l-0.965,0.039v1.788l0.965-0.028v2.575
		l-0.965,0.03v2.047l0.965-0.014v2.581l-0.965,0.011v2.062l0.965-0.008v2.482l-0.965,0.028v1.619l0.965-0.028v2.228"/>
	<path fill="#080204" d="M92.238,19.345c-4.282,0-7.766-3.509-7.766-7.863c0-4.34,3.484-7.857,7.766-7.857
		c4.305,0,7.78,3.517,7.78,7.857C100.018,15.836,96.542,19.345,92.238,19.345 M82.823,3.111V20.16l18.37-0.493V2.508L82.823,3.111z"
		/>
	<polyline fill="#080204" points="93.66,8.672 92.834,10.096 91.955,11.645 92.461,11.928 93.284,10.505 93.35,10.399 94.057,9.164 
		94.169,8.98 94.942,7.638 94.428,7.336 	"/>
	<polyline fill="#080204" points="92.025,11.021 92.025,12.748 92.021,12.747 92.025,13.14 92.025,14.918 92.605,14.912 
		92.614,14.517 92.619,14.517 92.619,12.778 92.619,12.78 92.619,10.891 92.036,10.879 	"/>
	<rect x="84.989" y="11.182" fill="#080204" width="1.699" height="0.584"/>
	<polyline fill="#080204" points="85.825,8.029 87.423,8.953 87.712,8.435 86.112,7.53 	"/>
	<polyline fill="#080204" points="85.802,14.933 86.077,15.456 87.648,14.544 87.356,14.047 	"/>
	<polyline fill="#080204" points="89.78,6.4 88.889,4.854 88.39,5.144 89.282,6.69 	"/>
	<polyline fill="#080204" points="98.836,8.097 98.54,7.581 97.064,8.435 97.337,8.953 	"/>
	<rect x="92.097" y="3.995" fill="#080204" width="0.582" height="1.922"/>
	<polyline fill="#080204" points="97.063,14.506 98.608,15.398 98.892,14.895 97.337,13.989 	"/>
	<rect x="97.937" y="11.182" fill="#080204" width="1.741" height="0.584"/>
	<polyline fill="#080204" points="94.934,6.451 95.452,6.753 96.376,5.141 95.856,4.853 	"/>
	<polyline fill="#080204" points="88.39,17.798 88.884,18.104 89.803,16.531 89.29,16.237 	"/>
	<rect x="92.097" y="17.026" fill="#080204" width="0.582" height="1.92"/>
	<polyline fill="#080204" points="94.934,16.495 95.838,18.025 96.341,17.73 95.456,16.203 	"/>
	<path fill="#080204" d="M92.448,10.766c-0.352,0-0.631,0.278-0.631,0.633c0,0.335,0.279,0.622,0.631,0.622
		c0.353,0,0.617-0.287,0.617-0.622C93.065,11.044,92.8,10.766,92.448,10.766"/>
	<polyline fill="#008845" points="4.325,131.795 2.53,128.214 1.878,129.058 1.878,131.795 0,131.795 0,123.071 1.878,123.071 
		1.878,126.153 4.129,123.071 6.455,123.071 3.808,126.603 6.548,131.795 	"/>
	<path fill="#008845" d="M10.161,126.381l-0.706,2.316h1.352 M11.659,131.795l-0.36-1.313H8.915l-0.365,1.313H6.548l2.817-8.725
		h1.471l2.833,8.725H11.659z"/>
	<path fill="#008845" d="M27.074,125.872c0-0.23-0.08-0.436-0.219-0.617c-0.152-0.188-0.352-0.268-0.609-0.268h-1.085v1.784h1.085
		c0.257,0,0.457-0.098,0.609-0.284C26.994,126.314,27.074,126.1,27.074,125.872 M28.976,125.872c0,0.353-0.057,0.709-0.171,1.049
		c-0.121,0.322-0.285,0.634-0.518,0.898c-0.215,0.258-0.484,0.459-0.822,0.62c-0.33,0.161-0.703,0.236-1.143,0.236h-1.161v3.119
		h-1.909v-8.726h3.07c0.44,0,0.813,0.086,1.143,0.245c0.338,0.161,0.607,0.372,0.822,0.636c0.233,0.258,0.397,0.553,0.518,0.881
		C28.919,125.169,28.976,125.515,28.976,125.872"/>
	<path fill="#008845" d="M32.377,126.381l-0.703,2.316h1.352 M33.884,131.795l-0.371-1.313h-2.382l-0.366,1.313h-2.001l2.821-8.725
		h1.468l2.83,8.725H33.884z"/>
	<polyline fill="#008845" points="36.655,131.795 36.655,123.071 38.573,123.071 38.573,129.877 41.834,129.877 41.834,131.795 	"/>
	<path fill="#008845" d="M45.761,126.381l-0.694,2.316h1.351 M47.283,131.795l-0.354-1.313h-2.39l-0.386,1.313h-1.998l2.824-8.725
		h1.478l2.823,8.725H47.283z"/>
	<path fill="#008845" d="M58.84,130.277c-0.173,0.356-0.4,0.649-0.664,0.892c-0.252,0.236-0.544,0.41-0.866,0.523
		c-0.326,0.107-0.681,0.165-1.06,0.165c-0.465,0-0.866-0.089-1.217-0.245c-0.347-0.174-0.677-0.423-0.958-0.742
		c-0.202-0.219-0.368-0.463-0.47-0.726c-0.103-0.271-0.182-0.541-0.227-0.845c-0.063-0.299-0.085-0.602-0.085-0.912v-1.917
		c0-0.318,0.022-0.631,0.085-0.909c0.045-0.302,0.124-0.572,0.227-0.831c0.102-0.272,0.268-0.521,0.47-0.76
		c0.281-0.325,0.611-0.541,0.958-0.726c0.351-0.157,0.752-0.246,1.217-0.246c0.379,0,0.734,0.059,1.06,0.174
		c0.322,0.117,0.614,0.285,0.866,0.527c0.264,0.239,0.491,0.529,0.664,0.893c0.178,0.347,0.307,0.765,0.374,1.247h-1.94
		c-0.065-0.238-0.168-0.46-0.317-0.65c-0.151-0.188-0.38-0.28-0.687-0.28c-0.183,0-0.326,0.03-0.455,0.092
		c-0.133,0.086-0.24,0.17-0.312,0.279l-0.119,0.225c-0.04,0.076-0.067,0.195-0.099,0.335c-0.016,0.168-0.039,0.37-0.048,0.626
		c-0.018,0.236-0.018,0.568-0.018,0.962c0,0.403,0,0.719,0.018,0.981c0.009,0.24,0.032,0.449,0.048,0.592
		c0.032,0.17,0.059,0.281,0.099,0.369l0.119,0.209c0.072,0.109,0.179,0.201,0.312,0.264c0.129,0.084,0.272,0.105,0.455,0.105
		c0.307,0,0.536-0.089,0.687-0.285c0.149-0.187,0.252-0.403,0.317-0.64h1.94C59.147,129.505,59.018,129.926,58.84,130.277"/>
	<path fill="#008845" d="M62.969,126.381l-0.702,2.316h1.363 M64.494,131.795l-0.365-1.313h-2.392l-0.393,1.313h-2.013l2.854-8.725
		h1.482l2.843,8.725H64.494z"/>
	<path fill="#008845" d="M71.15,125.872c0-0.23-0.081-0.436-0.224-0.617c-0.141-0.188-0.355-0.268-0.612-0.268h-1.09v1.784h1.09
		c0.257,0,0.471-0.098,0.612-0.284C71.069,126.314,71.15,126.1,71.15,125.872 M73.07,125.872c0,0.353-0.047,0.709-0.178,1.049
		c-0.109,0.322-0.288,0.634-0.511,0.898c-0.227,0.258-0.498,0.459-0.832,0.62c-0.337,0.161-0.715,0.236-1.152,0.236h-1.173v3.119
		h-1.922v-8.726h3.095c0.437,0,0.815,0.086,1.152,0.245c0.334,0.161,0.605,0.372,0.832,0.636c0.223,0.258,0.402,0.553,0.511,0.881
		C73.023,125.169,73.07,125.515,73.07,125.872"/>
	<rect x="74.18" y="123.071" fill="#008845" width="1.939" height="8.725"/>
	<polyline fill="#008845" points="81.082,124.989 81.082,131.795 79.146,131.795 79.146,124.989 77.234,124.989 77.234,123.071 
		83.002,123.071 83.002,124.989 	"/>
	<path fill="#008845" d="M86.313,126.381l-0.707,2.316h1.366 M87.84,131.795l-0.36-1.313h-2.405l-0.389,1.313h-2.007l2.838-8.725
		h1.49l2.848,8.725H87.84z"/>
	<polyline fill="#008845" points="90.633,131.795 90.633,123.071 92.564,123.071 92.564,129.877 95.851,129.877 95.851,131.795 	"/>
	<path fill="#008845" d="M106.043,130.277c-0.185,0.356-0.401,0.649-0.662,0.892c-0.263,0.236-0.578,0.41-0.9,0.523
		c-0.329,0.107-0.692,0.165-1.058,0.165c-0.482,0-0.878-0.089-1.263-0.245c-0.33-0.174-0.655-0.423-0.949-0.742
		c-0.207-0.219-0.368-0.463-0.48-0.726c-0.121-0.271-0.182-0.541-0.245-0.845c-0.069-0.299-0.074-0.602-0.074-0.912v-1.917
		c0-0.318,0.005-0.631,0.074-0.909c0.063-0.302,0.124-0.572,0.245-0.831c0.112-0.272,0.273-0.521,0.48-0.76
		c0.294-0.325,0.619-0.541,0.949-0.726c0.385-0.157,0.78-0.246,1.263-0.246c0.365,0,0.729,0.059,1.058,0.174
		c0.322,0.117,0.638,0.285,0.9,0.527c0.261,0.239,0.478,0.529,0.662,0.893c0.179,0.347,0.312,0.765,0.378,1.247h-1.998
		c-0.039-0.238-0.133-0.46-0.303-0.65c-0.154-0.188-0.372-0.28-0.697-0.28c-0.174,0-0.339,0.03-0.467,0.092
		c-0.135,0.086-0.221,0.17-0.296,0.279l-0.115,0.225c-0.065,0.076-0.074,0.195-0.127,0.335c0,0.168-0.031,0.37-0.041,0.626
		c-0.022,0.236-0.022,0.568-0.022,0.962c0,0.403,0,0.719,0.022,0.981c0.01,0.24,0.041,0.449,0.041,0.592
		c0.053,0.17,0.062,0.281,0.127,0.369l0.115,0.209c0.075,0.109,0.161,0.201,0.296,0.264c0.128,0.084,0.293,0.105,0.467,0.105
		c0.325,0,0.543-0.089,0.697-0.285c0.17-0.187,0.264-0.403,0.303-0.64h1.998C106.355,129.505,106.222,129.926,106.043,130.277"/>
	<rect x="107.447" y="123.071" fill="#008845" width="1.951" height="8.725"/>
	<polyline fill="#008845" points="114.442,124.989 114.442,131.795 112.484,131.795 112.484,124.989 110.544,124.989 
		110.544,123.071 116.404,123.071 116.404,124.989 	"/>
	<polyline fill="#008845" points="121.079,128.226 121.079,131.795 119.123,131.795 119.123,128.226 116.738,123.071 
		118.866,123.071 120.1,126.209 121.35,123.071 123.485,123.071 	"/>
	<path fill="#008845" d="M131.017,126.381l-0.704,2.316h1.389 M132.578,131.795l-0.36-1.313h-2.454l-0.383,1.313h-2.047l2.886-8.725
		h1.493l2.889,8.725H132.578z"/>
	<path fill="#008845" d="M141.056,130.021c-0.173,0.39-0.39,0.709-0.653,0.995c-0.285,0.259-0.605,0.477-0.957,0.618
		c-0.379,0.161-0.769,0.223-1.172,0.223c-0.43,0-0.815-0.062-1.156-0.223c-0.375-0.142-0.695-0.359-0.963-0.618
		c-0.271-0.286-0.489-0.605-0.649-0.995c-0.143-0.384-0.226-0.807-0.226-1.293v-5.657h1.949v5.602c0,0.418,0.088,0.734,0.28,0.951
		c0.193,0.219,0.446,0.324,0.765,0.324c0.327,0,0.581-0.105,0.787-0.324c0.186-0.217,0.278-0.533,0.278-0.951v-5.602h1.94v5.657
		C141.28,129.214,141.198,129.637,141.056,130.021"/>
	<polyline fill="#008845" points="146.208,124.989 146.208,131.795 144.243,131.795 144.243,124.989 142.285,124.989 
		142.285,123.071 148.147,123.071 148.147,124.989 	"/>
	<polyline fill="#008845" points="153.294,131.795 153.294,128.338 151.215,128.338 151.215,131.795 149.268,131.795 
		149.268,123.071 151.215,123.071 151.215,126.425 153.294,126.425 153.294,123.071 155.248,123.071 155.248,131.795 	"/>
	<path fill="#008845" d="M160.663,127.427c0-0.394,0-0.726-0.004-0.962c-0.019-0.256-0.056-0.451-0.061-0.606
		c-0.026-0.151-0.06-0.274-0.096-0.354l-0.118-0.205c-0.083-0.111-0.181-0.213-0.305-0.28c-0.14-0.08-0.305-0.11-0.473-0.11
		c-0.178,0-0.348,0.03-0.476,0.11c-0.129,0.067-0.217,0.169-0.307,0.28l-0.12,0.205c-0.038,0.08-0.059,0.203-0.1,0.354
		c-0.003,0.155-0.044,0.351-0.044,0.606c-0.023,0.236-0.023,0.568-0.023,0.962c0,0.403,0,0.719,0.023,0.974
		c0,0.248,0.041,0.439,0.044,0.586c0.041,0.164,0.062,0.268,0.1,0.356l0.12,0.217c0.09,0.103,0.178,0.206,0.307,0.276
		c0.128,0.068,0.298,0.111,0.476,0.111c0.168,0,0.333-0.043,0.473-0.111c0.124-0.07,0.222-0.174,0.305-0.276l0.118-0.217
		c0.036-0.089,0.069-0.192,0.096-0.356c0.005-0.146,0.042-0.338,0.061-0.586C160.663,128.146,160.663,127.831,160.663,127.427
		 M162.61,127.427v0.96c0,0.311-0.009,0.613-0.073,0.911c-0.06,0.305-0.136,0.575-0.236,0.845c-0.113,0.264-0.282,0.507-0.473,0.727
		c-0.309,0.319-0.61,0.567-0.971,0.742c-0.347,0.156-0.766,0.245-1.25,0.245c-0.494,0-0.916-0.089-1.258-0.245
		c-0.356-0.175-0.66-0.423-0.962-0.742c-0.21-0.22-0.362-0.463-0.474-0.727c-0.121-0.27-0.189-0.54-0.25-0.845
		c-0.055-0.298-0.06-0.601-0.068-0.911v-1.918c0.009-0.318,0.014-0.631,0.068-0.908c0.061-0.302,0.129-0.572,0.25-0.831
		c0.111-0.272,0.264-0.521,0.474-0.76c0.302-0.325,0.605-0.542,0.962-0.726c0.342-0.158,0.764-0.246,1.258-0.246
		c0.484,0,0.903,0.088,1.25,0.246c0.36,0.184,0.662,0.4,0.971,0.726c0.19,0.239,0.359,0.487,0.473,0.76
		c0.101,0.259,0.177,0.529,0.236,0.831c0.064,0.277,0.073,0.59,0.073,0.908V127.427z"/>
	<path fill="#008845" d="M167.88,125.87c0-0.233-0.099-0.435-0.238-0.623c-0.143-0.179-0.345-0.258-0.627-0.258h-1.097v1.752h1.097
		c0.282,0,0.484-0.084,0.627-0.268C167.782,126.292,167.88,126.096,167.88,125.87 M167.957,131.795l-1.389-3.258h-0.649v3.258h-1.96
		v-8.725h3.152c0.443,0,0.827,0.084,1.161,0.244c0.332,0.16,0.615,0.372,0.84,0.637c0.244,0.258,0.398,0.551,0.519,0.879
		c0.128,0.34,0.192,0.686,0.192,1.043c0,0.287-0.056,0.564-0.128,0.805c-0.069,0.255-0.182,0.449-0.297,0.648
		c-0.133,0.188-0.258,0.363-0.415,0.494c-0.16,0.139-0.313,0.256-0.462,0.325l1.705,3.649H167.957z"/>
	<rect x="171.226" y="123.071" fill="#008845" width="1.952" height="8.725"/>
	<polyline fill="#008845" points="178.208,124.989 178.208,131.795 176.268,131.795 176.268,124.989 174.309,124.989 
		174.309,123.071 180.149,123.071 180.149,124.989 	"/>
	<polyline fill="#008845" points="184.838,128.226 184.838,131.795 182.88,131.795 182.88,128.226 180.494,123.071 182.61,123.071 
		183.859,126.209 185.101,123.071 187.231,123.071 	"/>
	<polyline fill="#008845" points="19.802,123.071 18.061,126.921 16.323,123.071 14.444,123.071 14.444,131.795 16.354,131.795 
		16.354,127.606 17.991,131.375 18.189,131.375 19.773,127.606 19.773,131.795 21.689,131.795 21.689,123.071 	"/>
</g>
</svg>
