<?xml version="1.0" encoding="utf-8"?>
<!-- Generator: Adobe Illustrator 16.0.0, SVG Export Plug-In . SVG Version: 6.00 Build 0)  -->
<!DOCTYPE svg PUBLIC "-//W3C//DTD SVG 1.1//EN" "http://www.w3.org/Graphics/SVG/1.1/DTD/svg11.dtd">
<svg version="1.1" id="Layer_1" xmlns="http://www.w3.org/2000/svg" xmlns:xlink="http://www.w3.org/1999/xlink" x="0px" y="0px"
	 width="25.639px" height="18.225px" viewBox="0 0 25.639 18.225" enable-background="new 0 0 25.639 18.225" xml:space="preserve">
<path fill="#008000" d="M13.01,2.101C12.129,1.256,7.06-1.674,0.127,1.312v2.134v14.248h10.503c0.36,0.311,1.217,0.531,2.221,0.531
	c1.001,0,1.861-0.221,2.223-0.531h10.564V3.446V1.312C18.992-1.618,13.68,1.481,13.01,2.101 M12.067,16.674
	c0-0.56-4.931-3.842-10.625-0.261V2.52C2.57,1.874,4.086,1.477,5.76,1.477c3.486,0,6.307,1.144,6.307,3.265V16.674z M24.404,16.414
	c-5.691-3.581-10.621-0.299-10.621,0.261V4.742c0-2.121,2.822-3.265,6.305-3.265c1.672,0,3.189,0.397,4.316,1.043V16.414z"/>
</svg>
