<?xml version="1.0" encoding="utf-8"?>
<!-- Generator: Adobe Illustrator 16.0.0, SVG Export Plug-In . SVG Version: 6.00 Build 0)  -->
<!DOCTYPE svg PUBLIC "-//W3C//DTD SVG 1.1//EN" "http://www.w3.org/Graphics/SVG/1.1/DTD/svg11.dtd">
<svg version="1.1" id="Layer_1" xmlns="http://www.w3.org/2000/svg" xmlns:xlink="http://www.w3.org/1999/xlink" x="0px" y="0px"
	 width="25.512px" height="25.51px" viewBox="0 0 25.512 25.51" enable-background="new 0 0 25.512 25.51" xml:space="preserve">
<path fill="#8B0000" d="M17.625,1.67c-0.805-0.661-1.364-0.504-2.172,0.934c-0.533,0.951-1.381,1.066-1.901,1.036l0.004-0.189
	c0.603-0.299,1.028-0.907,1.028-1.624C14.583,0.815,13.764,0,12.756,0c-1.009,0-1.831,0.815-1.831,1.827
	c0,0.717,0.426,1.325,1.03,1.622l0.002,0.191c-0.518,0.03-1.369-0.085-1.901-1.036C9.251,1.166,8.69,1.009,7.886,1.67
	C7.077,2.332,3.888,6.141,0,5.793c0,0,0.771,1.749,2.871,1.362c0,0,1.123,1.164,2.946,0.348c0,0,0.946,0.854,2.453,0.077
	c0,0,1.119,0.857,2.313,0.116c0,0,0.675,0.488,1.423,0.362l0.049,4.402c-0.085-0.017-0.152-0.037-0.243-0.053
	c-0.003-0.002-1.305-0.281-2.682-0.668c-1.325-0.346-2.781-0.91-2.994-1.202c0.018-0.019,0.047-0.034,0.086-0.05
	c0.118-0.064,0.318-0.126,0.558-0.176c0.487-0.1,1.146-0.149,1.809-0.177c1.317-0.046,1.554,0.01,1.577,0.014
	c0.002-0.04,0.763,0.09,0.972-0.685c-0.008-0.006,0.016-0.038,0.002-0.056c-0.043-0.533-0.453-0.56-0.789-0.621
	C9.806,8.712,10.09,8.743,9.356,8.752c-1.205,0.088-4.921-0.211-5.39,1.745c0,0.052-0.003,0.089-0.01,0.136
	c0.157,1.703,3.682,2.443,6.237,2.952c-0.867,0.594-1.331,1.366-1.515,2.365c-0.087,1.064,0.758,2.076,2.721,3.21
	c-1.492,1.056-2.472,2.048-2.391,3.246c0.139,0.976,1.001,2.282,2.695,3.103c0.005,0.002,0.007,0,0.01,0h0.005
	c0,0-1.185-1.808-1.266-2.798c-0.078-0.577,0.25-1.433,1.693-2.459l0.041,3.617h0.007c0.01,0.308,0.247,0.552,0.547,0.552
	c0.298,0,0.537-0.244,0.544-0.552h0.006l0.049-3.522c1.328,0.984,1.629,1.803,1.553,2.364c-0.08,0.99-1.266,2.798-1.266,2.798h0.005
	c0,0,0.003,0.002,0.012,0c1.692-0.82,2.556-2.127,2.694-3.103c0.078-1.198-0.9-2.19-2.391-3.246c1.963-1.134,2.81-2.146,2.721-3.21
	c-0.185-0.999-0.647-1.771-1.516-2.365c2.555-0.509,6.079-1.249,6.236-2.952c-0.007-0.047-0.012-0.084-0.012-0.136
	c-0.465-1.956-4.182-1.657-5.389-1.745c-0.734-0.009-0.449-0.04-0.994,0.034c-0.334,0.061-0.746,0.088-0.789,0.621
	c-0.014,0.018,0.012,0.05,0.004,0.056c0.209,0.775,0.969,0.645,0.971,0.685c0.021-0.004,0.26-0.06,1.579-0.014
	c0.659,0.028,1.319,0.077,1.806,0.177c0.241,0.05,0.439,0.112,0.557,0.176c0.039,0.016,0.071,0.031,0.09,0.05
	c-0.215,0.292-1.67,0.856-2.995,1.202c-1.378,0.387-2.681,0.666-2.683,0.668c-0.035,0.007-0.062,0.012-0.094,0.019l0.055-4.368
	c0.756,0.133,1.435-0.362,1.435-0.362c1.19,0.741,2.313-0.116,2.313-0.116c1.506,0.777,2.453-0.077,2.453-0.077
	c1.821,0.816,2.943-0.348,2.943-0.348c2.102,0.387,2.874-1.362,2.874-1.362C21.623,6.141,18.433,2.332,17.625,1.67 M10.368,16.287
	c0.028-0.384-0.105-1.3,1.71-1.966l0.042,3.635c-0.351-0.221-0.713-0.449-1.082-0.684C10.551,16.97,10.324,16.562,10.368,16.287
	 M14.305,17.272c-0.317,0.205-0.631,0.398-0.937,0.593l0.047-3.487c1.656,0.663,1.533,1.537,1.56,1.909
	C15.02,16.562,14.792,16.97,14.305,17.272"/>
</svg>
